<?xml version="1.0" encoding="utf-8"?>
<!-- Generator: Adobe Illustrator 24.0.1, SVG Export Plug-In . SVG Version: 6.00 Build 0)  -->
<svg version="1.1" xmlns="http://www.w3.org/2000/svg" xmlns:xlink="http://www.w3.org/1999/xlink" x="0px" y="0px"
	 viewBox="0 0 1491.2 414.9" style="enable-background:new 0 0 1491.2 414.9;" xml:space="preserve">
<style type="text/css">
	.st0{fill:url(#SVGID_1_);}
	.st1{fill:#606060;}
	.st2{font-family:'LemonMilklight';}
	.st3{font-size:36.6154px;}
	.st4{letter-spacing:1;}
	.st5{fill:#007C9F;}
	.st6{fill:#FCDE00;}
	.st7{fill:#006598;}
	.st8{fill:#F7BE1E;}
	.st9{fill:url(#SVGID_2_);}
	.st10{fill:#ACABAB;}
	.st11{fill:#505F8E;}
	.st12{fill:#52ACD6;}
	.st13{fill:#FFFFFF;}
	.st14{fill:#E12D29;}
	.st15{fill:#0B6A92;}
</style>
<g id="Layer_1">
	<g>
		<text transform="matrix(1 0 0 1.06 483.2173 393.6278)" class="st1 st2 st3 st4">CRECI: 3654 - J</text>
	</g>
</g>
<g id="Layer_2">
	<g>
		<path class="st11" d="M462,183.8H20.8L241.4,14.6L462,183.8z M153.7,138.7h175.4l-87.7-67.3L153.7,138.7z"/>
		<polygon class="st12" points="241.4,43 87.3,161.2 395.6,161.2 		"/>
		<path class="st11" d="M241.4,393.6c-82,0-148.7-66.7-148.7-148.7c0-82,66.7-148.7,148.7-148.7S390.1,163,390.1,245
			C390.1,326.9,323.4,393.6,241.4,393.6z M241.4,141.4c-57.1,0-103.6,46.5-103.6,103.6s46.5,103.6,103.6,103.6S345,302.1,345,245
			S298.5,141.4,241.4,141.4z"/>
		<circle class="st12" cx="241.4" cy="245" r="126.1"/>
		<path class="st11" d="M260.9,258c-1.9,0-3.8-0.7-5.2-2.1l-19.5-18.8c-1.7-1.6-2.5-4-2.2-6.3c0.3-2.3,1.7-4.4,3.7-5.6l117.8-68.1
			c3.4-1.9,7.6-1,9.9,2.1c2.3,3.1,1.8,7.5-1.1,10l-98.3,86.9C264.4,257.4,262.7,258,260.9,258z M253.8,233.2l7.3,7l36.8-32.5
			L253.8,233.2z"/>
		<path class="st11" d="M220.4,262.6c-2.2,0-4.3-1-5.7-2.7l-83.1-98c-2.5-2.9-2.4-7.3,0.3-10c2.7-2.8,7-3.1,10-0.8l99.8,76.6
			c1.6,1.2,2.6,3,2.9,5c0.2,2-0.3,4-1.5,5.6l-16.7,21.4c-1.4,1.8-3.5,2.8-5.8,2.9C220.5,262.6,220.4,262.6,220.4,262.6z
			 M188.5,205.9l31.6,37.3l6.4-8.1L188.5,205.9z"/>
		<polygon class="st13" points="260.9,250.5 241.4,231.7 359.2,163.6 		"/>
		<polygon class="st13" points="237.1,233.7 220.4,255.1 137.3,157.1 		"/>
		<circle class="st13" cx="241.4" cy="250.5" r="27.1"/>
		<path class="st11" d="M241.4,285.1c-19.1,0-34.6-15.5-34.6-34.6s15.5-34.6,34.6-34.6s34.6,15.5,34.6,34.6S260.5,285.1,241.4,285.1
			z M241.4,231c-10.8,0-19.6,8.8-19.6,19.6c0,10.8,8.8,19.6,19.6,19.6c10.8,0,19.6-8.8,19.6-19.6C261,239.7,252.2,231,241.4,231z"/>
		<rect x="103.9" y="236.6" class="st11" width="31.3" height="16.7"/>
		<rect x="345.3" y="236.6" class="st11" width="31.3" height="16.7"/>
		
			<rect x="224.6" y="357.3" transform="matrix(6.123234e-17 -1 1 6.123234e-17 -125.4787 605.9025)" class="st11" width="31.3" height="16.7"/>
		
			<rect x="224.6" y="115.9" transform="matrix(6.123234e-17 -1 1 6.123234e-17 115.973 364.4508)" class="st11" width="31.3" height="16.7"/>
	</g>
	<g>
		<g>
			<path class="st14" d="M484,244.2h21.1v96.7H484V244.2z"/>
			<path class="st14" d="M616.2,340.9l-0.1-58l-26.8,47.8h-9.5L553,284.1v56.8h-19.8v-96.7h17.5l34.1,60.1l33.6-60.1h17.3l0.3,96.7
				H616.2z"/>
			<path class="st14" d="M682.7,336c-7.6-4.3-13.5-10.3-17.9-17.9c-4.3-7.6-6.4-16.1-6.4-25.6s2.1-18,6.4-25.6
				c4.3-7.6,10.3-13.5,17.9-17.9c7.6-4.3,16.1-6.5,25.6-6.5c9.5,0,18,2.2,25.5,6.5c7.6,4.3,13.5,10.3,17.8,17.9
				c4.3,7.6,6.5,16.1,6.5,25.6s-2.2,18-6.5,25.6c-4.3,7.6-10.3,13.6-17.8,17.9c-7.6,4.3-16.1,6.5-25.5,6.5
				C698.9,342.5,690.3,340.4,682.7,336z M722.9,319.5c4.3-2.6,7.8-6.3,10.2-11c2.5-4.7,3.7-10,3.7-16s-1.2-11.3-3.7-16
				c-2.5-4.7-5.9-8.4-10.2-11c-4.3-2.6-9.2-3.9-14.6-3.9s-10.3,1.3-14.6,3.9c-4.3,2.6-7.8,6.3-10.2,11c-2.5,4.7-3.7,10-3.7,16
				s1.2,11.3,3.7,16c2.5,4.7,5.9,8.4,10.2,11c4.3,2.6,9.2,3.9,14.6,3.9S718.6,322.1,722.9,319.5z M714.1,216.4H736l-23.6,19.9h-15.9
				L714.1,216.4z"/>
			<path class="st14" d="M865.3,244.2l-39.5,96.7H805l-39.4-96.7h22.8l27.8,69.1l28.1-69.1H865.3z"/>
			<path class="st14" d="M950,322.9v18h-70.6v-96.7h68.9v18h-47.9v21h42.3v17.4h-42.3v22.4H950z"/>
			<path class="st14" d="M973.4,244.2h21.1v96.7h-21.1V244.2z"/>
			<path class="st14" d="M1031.7,339.4c-6.7-2.1-12.1-4.8-16.2-8.1l7.2-16.9c3.9,3,8.6,5.5,13.9,7.3c5.4,1.8,10.8,2.8,16.2,2.8
				c6,0,10.4-0.9,13.3-2.8c2.9-1.9,4.3-4.4,4.3-7.5c0-2.3-0.8-4.2-2.5-5.7c-1.7-1.5-3.9-2.7-6.5-3.7c-2.6-0.9-6.2-1.9-10.7-3
				c-6.9-1.7-12.6-3.5-17.1-5.2c-4.4-1.7-8.2-4.5-11.4-8.4c-3.2-3.9-4.8-9-4.8-15.5c0-5.6,1.4-10.7,4.3-15.3
				c2.9-4.6,7.2-8.2,13-10.8c5.8-2.7,12.8-4,21.2-4c5.8,0,11.5,0.7,17.1,2.2c5.6,1.5,10.4,3.6,14.6,6.3l-6.5,17
				c-8.4-5.1-16.9-7.6-25.3-7.6c-5.9,0-10.3,1-13.1,3c-2.8,2-4.2,4.7-4.2,8c0,3.3,1.6,5.8,4.9,7.4c3.3,1.6,8.2,3.2,14.9,4.8
				c6.9,1.7,12.6,3.5,17.1,5.2c4.4,1.7,8.2,4.5,11.4,8.3c3.2,3.8,4.8,8.9,4.8,15.3c0,5.5-1.5,10.6-4.4,15.1
				c-2.9,4.5-7.3,8.2-13.1,10.8c-5.8,2.7-12.9,4-21.2,4C1045.4,342.5,1038.4,341.5,1031.7,339.4z"/>
		</g>
		<g>
			<path class="st15" d="M484,68h57.7c13.8,0,25.9,2.8,36.5,8.4c10.6,5.6,18.8,13.4,24.7,23.5c5.8,10.1,8.8,21.9,8.8,35.3
				s-2.9,25.2-8.8,35.4c-5.9,10.1-14.1,18-24.7,23.5c-10.6,5.6-22.7,8.4-36.5,8.4H484V68z M540.2,176.9c12.7,0,22.8-3.8,30.4-11.2
				c7.6-7.5,11.3-17.6,11.3-30.5c0-12.8-3.8-23-11.3-30.5c-7.5-7.5-17.7-11.2-30.4-11.2h-26.8v83.4H540.2z"/>
			<path class="st15" d="M724.5,173.6h-58.9l-11.2,28.8h-30.1L680.8,68h29l56.7,134.5h-30.8L724.5,173.6z M715.3,150l-20.1-51.5
				L675,150H715.3z"/>
			<path class="st15" d="M965.6,68v134.5h-29.4v-55.1h-57.6v55.1h-29.4V68h29.4v53h57.6V68H965.6z"/>
			<path class="st15" d="M1030.5,195.7c-10.6-6-18.8-14.3-24.8-24.9c-6-10.6-9-22.4-9-35.6c0-13.2,3-25.1,9-35.6
				c6-10.6,14.3-18.9,24.8-24.9c10.6-6,22.4-9,35.6-9s25,3,35.5,9c10.5,6,18.8,14.3,24.8,24.9c6,10.6,9.1,22.5,9.1,35.6
				c0,13.2-3,25.1-9.1,35.6c-6,10.6-14.3,18.9-24.8,24.9c-10.5,6-22.4,9-35.5,9S1041.1,201.8,1030.5,195.7z M1086.5,172.8
				c6-3.7,10.8-8.7,14.2-15.3c3.4-6.5,5.2-14,5.2-22.3c0-8.3-1.7-15.8-5.2-22.3c-3.4-6.5-8.2-11.6-14.2-15.3
				c-6-3.7-12.8-5.5-20.3-5.5s-14.3,1.8-20.3,5.5c-6,3.7-10.8,8.7-14.2,15.3c-3.4,6.5-5.2,14-5.2,22.3c0,8.3,1.7,15.8,5.2,22.3
				c3.4,6.5,8.2,11.6,14.2,15.3c6,3.7,12.8,5.5,20.3,5.5S1080.4,176.4,1086.5,172.8z"/>
			<path class="st15" d="M1247.6,202.5l-24.5-37.5h-1.4h-25.6v37.5h-29.4V68h54.9c11.2,0,21,2,29.3,6c8.3,4,14.7,9.6,19.1,16.9
				c4.5,7.3,6.7,15.9,6.7,25.9s-2.3,18.6-6.8,25.8s-11,12.8-19.3,16.6l28.5,43.2H1247.6z M1240.2,99.4c-4.6-4-11.3-6-20.1-6h-23.9
				v46.9h23.9c8.8,0,15.5-2,20.1-6.1c4.6-4.1,6.9-9.9,6.9-17.3C1247.1,109.2,1244.8,103.4,1240.2,99.4z"/>
			<path class="st15" d="M1392.6,173.6h-58.9l-11.2,28.8h-30.1L1348.9,68h29l56.7,134.5h-30.8L1392.6,173.6z M1383.4,150l-20.1-51.5
				l-20.1,51.5H1383.4z"/>
		</g>
	</g>
</g>
</svg>
